<svg width="1503" height="1503" viewBox="0 0 1503 1503" fill="none" xmlns="http://www.w3.org/2000/svg">
<circle cx="751.5" cy="751.5" r="751.5" fill="white"/>
<path d="M231.839 227.553L438.256 147L448.325 791.423L231.839 871.976V227.553Z" fill="#7166F0"/>
<path d="M320.783 240.978L263.725 262.795V408.797L320.783 386.981V240.978Z" fill="#0E0662"/>
<path d="M396.301 212.449L339.243 234.266V380.268L396.301 358.451V212.449Z" fill="#0E0662"/>
<path d="M319.105 423.901L262.046 445.717V591.719L319.105 569.903V423.901Z" fill="#0E0662"/>
<path d="M397.98 395.372L340.921 417.188V563.19L397.98 541.374V395.372Z" fill="#0E0662"/>
<path d="M322.461 611.857L265.403 633.674V779.676L322.461 757.86V611.857Z" fill="#0E0662"/>
<path d="M403.014 585.006L345.956 606.823V752.825L403.014 731.009V585.006Z" fill="#0E0662"/>
<path d="M315.748 234.266L258.69 256.082V402.084L315.748 380.268V234.266Z" fill="#FFDD76"/>
<path d="M391.267 205.737L334.208 227.553V373.555L391.267 351.739V205.737Z" fill="#FFDD76"/>
<path d="M314.07 417.188L257.012 439.004V585.007L314.07 563.19V417.188Z" fill="#FFDD76"/>
<path d="M392.945 388.659L335.887 410.475V556.477L392.945 534.661V388.659Z" fill="#FFDD76"/>
<path d="M317.427 605.145L260.368 626.961V772.963L317.427 751.147V605.145Z" fill="#FFDD76"/>
<path d="M397.98 578.294L340.921 600.11V746.112L397.98 724.296V578.294Z" fill="#FFDD76"/>
<path d="M700.053 618.57L806.618 582.489L580.902 506.132V588.363L700.053 618.57Z" fill="#0E0662"/>
<path d="M579.224 710.87V662.203L695.018 692.41L632.925 722.618L579.224 710.87Z" fill="#0E0662" stroke="black"/>
<path d="M625.266 741.078L752.077 762.559L678.104 794.78L574.189 773.299L625.266 741.078Z" fill="#0E0662"/>
<path d="M642.995 893.793V787.584L696.697 764.572V863.7L642.995 893.793Z" fill="#9B92FF"/>
<path d="M579.102 771.704L577.05 698.353L638.054 680.742L639.969 749.202L579.102 771.704Z" fill="#9B92FF"/>
<path d="M807.457 259.438L438.256 147L444.969 794.78L584.258 833.378V667.238L637.96 685.698V751.147L696.697 771.285V861.907L807.457 897.149V789.745L757.111 771.285V685.698L696.697 667.238V603.467L584.258 566.546V509.488L807.457 583.328V259.438Z" fill="#7166F0"/>
<path d="M807.457 897.149L696.697 861.068L642.156 892.954L742.847 924L807.457 897.149Z" fill="#0E0662"/>
<path d="M621.178 266.151L493.636 225.875V314.819L621.178 356.773V266.151Z" fill="#0E0662"/>
<path d="M770.537 313.14L642.995 272.864V361.808L770.537 403.762V313.14Z" fill="#0E0662"/>
<path d="M768.859 420.544L641.316 380.268V469.212L768.859 511.166V420.544Z" fill="#0E0662"/>
<path d="M621.178 373.555L493.636 333.279V422.222L621.178 464.177V373.555Z" fill="#0E0662"/>
<path d="M626.213 261.117L498.671 220.84V309.784L626.213 351.739V261.117Z" fill="#FFDD76"/>
<path d="M775.571 308.106L648.029 267.829V356.773L775.571 398.728V308.106Z" fill="#FFDD76"/>
<path d="M773.893 415.51L646.351 375.233V464.177L773.893 506.132V415.51Z" fill="#FFDD76"/>
<path d="M626.213 368.52L498.671 328.244V417.188L626.213 459.143V368.52Z" fill="#FFDD76"/>
<path d="M439.095 790.584L231 871.976L374.986 908.896L584.258 832.827L439.095 790.584Z" fill="#0E0662"/>
<path d="M438.256 149.517V793.941" stroke="#0E0662"/>
<path d="M919.291 641.637C901.127 641.637 885.355 638.268 871.977 631.529C858.5 624.889 848.148 615.367 840.922 602.965C833.793 590.562 830.229 576.061 830.229 559.459C830.229 543.053 833.744 528.795 840.775 516.686C847.709 504.674 857.523 495.396 870.219 488.854C882.914 482.311 897.807 479.039 914.896 479.039C930.619 479.039 944.486 482.115 956.498 488.268C968.51 494.518 977.787 503.355 984.33 514.781C990.971 526.207 994.291 539.537 994.291 554.771C994.291 560.045 993.51 565.025 991.947 569.713H900.688C900.688 578.893 904.154 586.266 911.088 591.832C918.021 597.301 926.371 600.035 936.137 600.035C943.559 600.035 951.713 598.766 960.6 596.227C969.486 593.59 978.422 589.537 987.406 584.068L989.896 584.947V624.352C979.838 630.113 969.486 634.459 958.842 637.389C948.295 640.221 935.111 641.637 919.291 641.637ZM900.688 539.684V543.932H938.188V540.855C938.188 533.922 936.576 527.965 933.354 522.984C930.229 517.906 925.541 515.367 919.291 515.367C914.115 515.367 909.721 517.955 906.107 523.131C902.494 528.209 900.688 533.727 900.688 539.684ZM1214.9 539.391V596.666H1235.26V639H1144.58V539.098C1144.58 534.898 1143.22 531.188 1140.48 527.965C1137.85 524.742 1134.62 523.131 1130.81 523.131C1123.69 523.131 1119.19 526.695 1117.34 533.824C1115.38 541.148 1114.41 551.402 1114.41 564.586V596.666H1114.7V639H1023.15V596.666H1044.39V527.379H1023.15V487.828L1114.41 479.039V501.012C1121.15 493.004 1128.81 487.34 1137.41 484.02C1146 480.699 1155.72 479.039 1166.56 479.039C1198.78 479.039 1214.9 499.156 1214.9 539.391ZM1323.88 641.637C1286.28 641.637 1267.48 622.057 1267.48 582.896V525.035H1244.05V482.115H1267.48V448.57L1337.65 432.896V482.115H1365.78V525.035H1337.65V577.77C1337.65 582.164 1339.31 585.826 1342.63 588.756C1345.95 591.686 1350.1 593.15 1355.08 593.15C1358.7 593.15 1362.26 592.857 1365.78 592.271V632.994C1352.88 638.756 1338.92 641.637 1323.88 641.637Z" fill="#0E0662"/>
<path d="M485.85 1294.25C477.842 1294.25 471.006 1293.66 465.342 1292.49C459.678 1291.32 454.404 1289.41 449.521 1286.78C444.736 1284.14 439.609 1280.72 434.141 1276.52L429.014 1290H381.699V1218.66H428.721C431.748 1226.87 436.387 1232.68 442.637 1236.09C448.984 1239.41 456.748 1241.07 465.928 1241.07C471.592 1241.07 476.426 1239.95 480.43 1237.71C484.434 1235.36 486.436 1232.29 486.436 1228.48C486.436 1223.69 484.385 1220.13 480.283 1217.78C476.182 1215.34 470.42 1213.1 462.998 1211.04C453.525 1208.51 444.932 1205.82 437.217 1202.99C429.6 1200.16 422.764 1197.23 416.709 1194.2C404.6 1188.14 394.834 1179.55 387.412 1168.42C379.99 1157.29 376.279 1142.49 376.279 1124.03C376.279 1109.87 379.355 1097.37 385.508 1086.53C391.562 1075.79 400.254 1067.44 411.582 1061.48C423.008 1055.43 436.436 1052.4 451.865 1052.4C470.713 1052.4 485.605 1058.41 496.543 1070.42L504.014 1056.65H546.055V1126.52H501.084C496.885 1117.73 492.246 1111.63 487.168 1108.21C482.09 1104.79 475.107 1103.09 466.221 1103.09C459.482 1103.09 454.258 1104.31 450.547 1106.75C446.836 1109.09 444.98 1112.36 444.98 1116.56C444.98 1121.25 447.666 1124.81 453.037 1127.26C458.311 1129.79 465.83 1132.14 475.596 1134.29C492.686 1138.19 507.432 1143.12 519.834 1149.08C531.943 1155.04 541.611 1163.49 548.838 1174.42C556.162 1185.26 559.824 1199.28 559.824 1216.46C559.824 1231.02 556.797 1244.2 550.742 1256.02C544.59 1267.83 535.85 1277.16 524.521 1283.99C513.291 1290.83 500.4 1294.25 485.85 1294.25ZM613.218 1291.32C594.419 1291.32 585.02 1281.53 585.02 1261.95V1233.02H573.301V1211.56H585.02V1194.79L620.103 1186.95V1211.56H634.165V1233.02H620.103V1259.38C620.103 1261.58 620.933 1263.41 622.593 1264.88C624.253 1266.34 626.328 1267.08 628.818 1267.08C630.625 1267.08 632.407 1266.93 634.165 1266.64V1287C627.72 1289.88 620.737 1291.32 613.218 1291.32ZM678.477 1291.32C662.754 1291.32 654.893 1281.48 654.893 1261.8V1234.19H645.444V1214.41L689.976 1210.02V1261.8C689.976 1263.71 690.684 1265.46 692.1 1267.08C693.516 1268.64 695.176 1269.42 697.08 1269.42C699.277 1269.42 700.986 1268.69 702.207 1267.22C703.477 1265.71 704.111 1263.85 704.111 1261.66V1234.19H697.08V1214.41L739.194 1210.02V1267.95H748.643V1290H704.111V1278.57C701.523 1282.58 698.057 1285.7 693.711 1287.95C689.414 1290.2 684.336 1291.32 678.477 1291.32ZM792.734 1291.32C785.654 1291.32 779.526 1289.44 774.351 1285.68C769.224 1281.92 765.317 1276.89 762.632 1270.59C759.995 1264.24 758.677 1257.26 758.677 1249.64C758.677 1242.76 760.044 1236.24 762.778 1230.09C765.513 1224.03 769.37 1219.17 774.351 1215.51C779.38 1211.85 785.312 1210.02 792.148 1210.02C797.129 1210.02 801.401 1210.83 804.966 1212.44C808.53 1214.05 811.851 1216.44 814.927 1219.61V1200.42H803.208V1180.5L850.156 1175.67V1267.95H859.458V1290H814.341V1280.55C811.948 1283.77 808.896 1286.36 805.186 1288.32C801.475 1290.22 797.324 1291.22 792.734 1291.32ZM804.453 1269.93C806.748 1269.93 808.823 1269.39 810.679 1268.32C812.534 1267.2 813.95 1265.88 814.927 1264.37V1236.61C813.804 1235.29 812.29 1234.12 810.386 1233.09C808.53 1232.02 806.553 1231.48 804.453 1231.48C800.645 1231.48 797.544 1233.04 795.151 1236.17C792.759 1239.24 791.562 1243.74 791.562 1249.64C791.562 1255.65 792.661 1260.53 794.858 1264.29C797.056 1268.05 800.254 1269.93 804.453 1269.93ZM913.511 1291.32C904.429 1291.32 896.543 1289.63 889.854 1286.26C883.115 1282.94 877.939 1278.18 874.326 1271.98C870.762 1265.78 868.979 1258.53 868.979 1250.23C868.979 1242.03 870.737 1234.9 874.253 1228.84C877.72 1222.84 882.627 1218.2 888.975 1214.93C895.322 1211.66 902.769 1210.02 911.313 1210.02C919.175 1210.02 926.108 1211.56 932.114 1214.63C938.12 1217.76 942.759 1222.18 946.03 1227.89C949.351 1233.6 951.011 1240.27 951.011 1247.89C951.011 1250.52 950.62 1253.01 949.839 1255.36H904.209C904.209 1259.95 905.942 1263.63 909.409 1266.42C912.876 1269.15 917.051 1270.52 921.934 1270.52C925.645 1270.52 929.722 1269.88 934.165 1268.61C938.608 1267.29 943.076 1265.27 947.568 1262.53L948.813 1262.97V1282.68C943.784 1285.56 938.608 1287.73 933.286 1289.19C928.013 1290.61 921.421 1291.32 913.511 1291.32ZM904.209 1240.34V1242.47H922.959V1240.93C922.959 1237.46 922.153 1234.48 920.542 1231.99C918.979 1229.45 916.636 1228.18 913.511 1228.18C910.923 1228.18 908.726 1229.48 906.919 1232.07C905.112 1234.6 904.209 1237.36 904.209 1240.34ZM1061.31 1240.2V1268.83H1071.49V1290H1026.16V1240.05C1026.16 1237.95 1025.47 1236.09 1024.11 1234.48C1022.79 1232.87 1021.18 1232.07 1019.27 1232.07C1015.71 1232.07 1013.46 1233.85 1012.53 1237.41C1011.56 1241.07 1011.07 1246.2 1011.07 1252.79V1268.83H1011.22V1290H965.439V1268.83H976.06V1234.19H965.439V1214.41L1011.07 1210.02V1221.01C1014.44 1217 1018.27 1214.17 1022.57 1212.51C1026.87 1210.85 1031.72 1210.02 1037.14 1210.02C1053.26 1210.02 1061.31 1220.08 1061.31 1240.2ZM1115.81 1291.32C1097.01 1291.32 1087.61 1281.53 1087.61 1261.95V1233.02H1075.89V1211.56H1087.61V1194.79L1122.69 1186.95V1211.56H1136.75V1233.02H1122.69V1259.38C1122.69 1261.58 1123.52 1263.41 1125.18 1264.88C1126.84 1266.34 1128.92 1267.08 1131.41 1267.08C1133.21 1267.08 1135 1266.93 1136.75 1266.64V1287C1130.31 1289.88 1123.33 1291.32 1115.81 1291.32ZM1190.66 1291.32C1180.65 1291.32 1171.79 1288.68 1164.07 1283.41L1161.66 1290H1148.03V1261.07H1164.37C1165 1264.78 1166.73 1268.1 1169.57 1271.03C1172.4 1273.96 1175.67 1275.42 1179.38 1275.42C1180.8 1275.42 1182.02 1275.03 1183.04 1274.25C1184.12 1273.47 1184.65 1272.18 1184.65 1270.37C1184.65 1268.56 1183.63 1266.93 1181.58 1265.46C1179.48 1263.95 1176.35 1262.22 1172.2 1260.26C1167.17 1257.77 1163.07 1255.5 1159.9 1253.45C1156.67 1251.4 1153.89 1248.72 1151.55 1245.4C1149.2 1242.03 1148.03 1238 1148.03 1233.31C1148.03 1228.48 1149.62 1224.28 1152.79 1220.71C1155.97 1217.2 1160.14 1214.54 1165.32 1212.73C1170.49 1210.92 1176.13 1210.02 1182.24 1210.02C1190.2 1210.02 1197.59 1212.12 1204.43 1216.32L1206.26 1211.56H1218.42V1234.92H1204.28C1203.06 1231.75 1201.3 1229.26 1199.01 1227.45C1196.71 1225.64 1194.03 1224.74 1190.95 1224.74C1187.34 1224.74 1185.53 1225.89 1185.53 1228.18C1185.58 1229.75 1186.53 1231.09 1188.39 1232.21C1190.24 1233.29 1193.25 1234.75 1197.4 1236.61C1199.99 1237.68 1202.35 1238.75 1204.5 1239.83C1206.65 1240.9 1208.58 1241.93 1210.29 1242.91C1213.71 1244.91 1216.68 1247.74 1219.22 1251.4C1221.76 1255.01 1223.03 1259.53 1223.03 1264.95C1223.03 1270.71 1221.54 1275.55 1218.56 1279.45C1215.59 1283.41 1211.63 1286.39 1206.7 1288.39C1201.77 1290.34 1196.42 1291.32 1190.66 1291.32Z" fill="#0E0662"/>
<path d="M1262.24 1006.33V1091H1055.99V1006.33H1092.9V967.953H937.043V889.438L1098.47 698.129H1226.79V892.953L1293.59 892.367V967.953H1226.79V1006.33H1262.24ZM1092.9 824.105L1037.82 892.367H1092.9V824.105Z" fill="#0E0662"/>
<path d="M1167.8 720.625C1171.81 713.887 1179.6 717.99 1182.99 720.885L1224.73 767.787L1224.22 797.557L1208.2 810.652L1223.68 829.149L1223.5 839.478L1207.36 859.256L1222.95 871.678L1222.78 881.399L1206.69 898.747L1222.19 916.029L1221.53 954.912C1275.46 985.007 1284 1044.71 1281.53 1070.8C1265.44 1158.52 1193.85 1175.25 1160.06 1172.64C1102.41 1168.01 1052.29 1113.67 1053.09 1066.89C1049.94 995.366 1093.59 961.635 1117.03 953.123L1120.23 765.997L1167.8 720.625Z" fill="#FFDD76"/>
<path d="M1198.35 1101.5C1197.9 1128.11 1134.26 1153.36 1135.17 1100.42C1143.01 1048.58 1199 1063.49 1198.35 1101.5Z" fill="#FFDD76"/>
<path d="M1159.8 718.625C1163.81 711.887 1171.6 715.99 1174.99 718.885L1216.73 765.787L1216.22 795.557L1200.2 808.652L1215.68 827.149L1215.5 837.478L1199.36 857.256L1214.95 869.678L1214.78 879.399L1198.69 896.747L1214.19 914.029L1213.53 952.912C1267.46 983.007 1276 1042.71 1273.53 1068.8C1257.44 1156.52 1185.85 1173.25 1152.06 1170.64C1094.41 1166.01 1044.29 1111.67 1045.09 1064.89C1041.94 993.366 1085.59 959.635 1109.03 951.123L1112.23 763.997L1159.8 718.625Z" fill="#7166F0"/>
<path d="M1190.35 1099.5C1189.9 1126.11 1126.26 1151.36 1127.17 1098.42C1135.01 1046.58 1191 1061.49 1190.35 1099.5Z" fill="#0E0662"/>
</svg>
